HIERARCHY
ROOT Hips
{
 OFFSET 0.000000 0.000000 0.000000
 CHANNELS 6 Xposition Yposition Zposition Yrotation Xrotation Zrotation
 JOINT Chest
 {
  OFFSET 0.000000 9.585900 0.002600
  CHANNELS 3 Yrotation Xrotation Zrotation
  JOINT Chest2
  {
   OFFSET 0.000000 9.601200 -0.005300
   CHANNELS 3 Yrotation Xrotation Zrotation
   JOINT Chest3
   {
    OFFSET 0.000000 9.561800 0.000000
    CHANNELS 3 Yrotation Xrotation Zrotation
    JOINT Chest4
    {
     OFFSET 0.000000 9.552100 0.000000
     CHANNELS 3 Yrotation Xrotation Zrotation
     JOINT Neck
     {
      OFFSET 0.000000 14.453000 0.000000
      CHANNELS 3 Yrotation Xrotation Zrotation
      JOINT Head
      {
       OFFSET 0.000000 8.936500 -0.011300
       CHANNELS 3 Yrotation Xrotation Zrotation
       End Site
       {
        OFFSET 0.000000 17.073600 -0.006000
       }
      }
     }
     JOINT RightCollar
     {
      OFFSET -2.921100 9.558500 0.000000
      CHANNELS 3 Yrotation Xrotation Zrotation
      JOINT RightShoulder
      {
       OFFSET -13.519700 0.000000 0.000000
       CHANNELS 3 Yrotation Xrotation Zrotation
       JOINT RightElbow
       {
        OFFSET 0.000000 -29.696600 0.000000
        CHANNELS 3 Yrotation Xrotation Zrotation
        JOINT RightWrist
        {
         OFFSET 0.000000 -24.004700 0.000000
         CHANNELS 3 Yrotation Xrotation Zrotation
         End Site
         {
          OFFSET 0.000000 -17.728500 0.000000
         }
        }
       }
      }
     }
     JOINT LeftCollar
     {
      OFFSET 2.921100 9.558500 0.000000
      CHANNELS 3 Yrotation Xrotation Zrotation
      JOINT LeftShoulder
      {
       OFFSET 13.519700 0.000000 0.000000
       CHANNELS 3 Yrotation Xrotation Zrotation
       JOINT LeftElbow
       {
        OFFSET 0.000000 -29.696600 0.000000
        CHANNELS 3 Yrotation Xrotation Zrotation
        JOINT LeftWrist
        {
         OFFSET 0.000000 -24.004700 0.000000
         CHANNELS 3 Yrotation Xrotation Zrotation
         End Site
         {
          OFFSET 0.000000 -17.728500 0.000000
         }
        }
       }
      }
     }
    }
   }
  }
 }
 JOINT RightHip
 {
  OFFSET -7.771700 -0.012900 -0.001300
  CHANNELS 3 Yrotation Xrotation Zrotation
  JOINT RightKnee
  {
   OFFSET 0.000000 -40.869800 0.001200
   CHANNELS 3 Yrotation Xrotation Zrotation
   JOINT RightAnkle
   {
    OFFSET 0.000000 -39.717900 0.002100
    CHANNELS 3 Yrotation Xrotation Zrotation
    JOINT RightToe
    {
     OFFSET 0.000000 -4.965400 11.033500
     CHANNELS 3 Yrotation Xrotation Zrotation
     End Site
     {
      OFFSET 0.000000 -1.423100 5.872300
     }
    }
   }
  }
 }
 JOINT LeftHip
 {
  OFFSET 7.771700 -0.012900 -0.001300
  CHANNELS 3 Yrotation Xrotation Zrotation
  JOINT LeftKnee
  {
   OFFSET 0.000000 -40.869800 0.001200
   CHANNELS 3 Yrotation Xrotation Zrotation
   JOINT LeftAnkle
   {
    OFFSET 0.000000 -39.717900 0.002100
    CHANNELS 3 Yrotation Xrotation Zrotation
    JOINT LeftToe
    {
     OFFSET 0.000000 -4.965400 11.033500
     CHANNELS 3 Yrotation Xrotation Zrotation
     End Site
     {
      OFFSET 0.000000 -1.423100 5.872300
     }
    }
   }
  }
 }
}
MOTION
Frames: 12
Frame Time: 0.008333
0.000000 85.388000 0.000000 0.000000 -5.767877 0.000000 0.000000 11.653817 0.000000 0.000000 -5.885947 0.000000 0.000000 -0.000000 0.000000 0.000000 -0.000000 0.000000 0.000000 12.528835 0.000000 0.000000 0.711642 0.000000 0.000000 -0.000000 0.000000 0.000000 0.000000 -90.000000 0.000000 -2.309062 0.000000 0.000000 2.309062 0.000000 0.000000 -0.000000 0.000000 0.000000 -0.000000 90.000000 0.000000 -2.309062 0.000000 0.000000 2.309062 0.000000 0.000000 8.520406 0.000000 0.000000 1.905762 0.000000 -0.000000 -4.658285 0.000000 0.000000 -0.000000 0.000000 0.000000 8.520406 0.000000 0.000000 1.905762 0.000000 -0.000000 -4.658285 0.000000 0.000000 -0.000000 0.000000
14.846598 49.984855 53.142772 173.302356 -32.637379 -5.991358 6.240691 20.996221 4.875893 0.715933 2.932999 0.396404 1.181696 4.790020 0.650686 4.879003 17.998041 3.062380 -0.562037 15.903115 2.906389 -2.086863 -6.182353 5.609620 -7.948861 -6.394984 -12.305377 14.833793 -10.559872 0.935167 151.594404 -71.248245 -153.936320 -2.010586 -13.146169 9.304946 -9.063102 -7.542457 2.985314 -0.070228 -11.973474 5.987259 -153.116792 -52.057892 152.762196 25.639508 -16.088748 -1.826852 0.931407 -48.284081 9.607960 -134.918662 84.235113 -123.560340 -3.630048 -12.931274 -2.548563 -0.430653 0.769546 -0.222456 -8.997071 -51.813047 15.405394 -152.955470 80.865945 -160.554205 0.914089 -16.805865 7.629024 -0.368430 -0.641595 -0.228160
14.843110 49.987854 53.132971 173.338297 -32.594721 -5.924567 6.163954 20.948526 4.782914 0.690502 2.841326 0.412632 1.162623 4.726642 0.640818 4.836010 17.899554 3.036566 -0.436337 15.784667 2.910396 -1.860202 -6.408419 5.576636 -8.032266 -6.268029 -12.138966 14.670151 -10.616111 0.783941 150.597200 -71.384551 -152.834428 -1.939986 -12.857880 9.535723 -8.953166 -7.434318 2.853048 0.075441 -11.859988 5.905171 -152.715741 -52.164182 152.425100 25.573149 -15.938125 -1.903461 0.985640 -48.338331 9.519939 -135.175669 84.204023 -123.856737 -3.690367 -12.945450 -2.490860 -0.449505 0.763668 -0.229657 -8.959708 -51.845954 15.280723 -153.189847 80.894749 -160.781132 0.852251 -16.807636 7.595327 -0.330142 -0.634440 -0.198590
14.842254 49.989630 53.126985 173.378103 -32.522568 -5.875103 6.065706 20.819907 4.721461 0.694586 2.858822 0.393677 1.131803 4.616369 0.646946 4.794990 17.803164 3.020188 -0.319052 15.674329 2.904754 -1.645159 -6.619307 5.528025 -8.105490 -6.131370 -11.986093 14.487404 -10.661713 0.667064 149.472098 -71.493516 -151.641918 -1.880645 -12.646746 9.716119 -8.855266 -7.332862 2.728684 0.224419 -11.726011 5.803645 -152.267948 -52.274633 152.059505 25.485574 -15.762555 -1.937821 1.017789 -48.421403 9.446142 -135.232943 84.175318 -123.943769 -3.732105 -12.912912 -2.475818 -0.427542 0.743441 -0.202508 -8.956009 -51.907425 15.205057 -153.241118 80.910866 -160.843195 0.801054 -16.816852 7.586845 -0.292118 -0.619420 -0.183609
14.847809 49.993592 53.121138 173.382937 -32.463122 -5.846067 6.017783 20.706303 4.701098 0.696575 2.869041 0.377720 1.100427 4.513872 0.660623 4.757562 17.710070 3.012556 -0.213438 15.575222 2.888716 -1.447293 -6.809052 5.463505 -8.166567 -5.995786 -11.850409 14.300195 -10.694101 0.592849 148.182430 -71.577226 -150.325898 -1.837485 -12.518230 9.815333 -8.767852 -7.243736 2.615283 0.366857 -11.567416 5.677844 -151.771136 -52.393004 151.666285 25.367691 -15.555384 -1.949885 1.039140 -48.491171 9.432316 -135.210954 84.146569 -123.951714 -3.734488 -12.897236 -2.450217 -0.405501 0.729335 -0.198251 -8.968195 -51.951743 15.195356 -153.260361 80.921739 -160.879022 0.796806 -16.818139 7.581880 -0.295029 -0.622622 -0.179781
14.854773 49.998036 53.117001 173.382371 -32.403533 -5.827143 5.977869 20.593074 4.700551 0.658821 2.769185 0.403404 1.103506 4.531155 0.634161 4.724629 17.619934 3.010679 -0.121555 15.489269 2.863745 -1.270854 -6.973938 5.386505 -8.215476 -5.870015 -11.732197 14.122290 -10.712706 0.564537 146.749900 -71.646385 -148.908714 -1.805519 -12.449634 9.823666 -8.686270 -7.169015 2.514928 0.487422 -11.381423 5.530725 -151.227946 -52.522577 151.252368 25.221524 -15.316356 -1.963384 1.053212 -48.559532 9.432480 -135.136840 84.121169 -123.897430 -3.735721 -12.878853 -2.442394 -0.382154 0.728531 -0.182285 -8.988426 -51.993912 15.210633 -153.232732 80.930693 -160.868413 0.786385 -16.822775 7.580003 -0.294526 -0.620842 -0.170655
14.859111 50.000842 53.116872 173.370921 -32.327392 -5.793590 5.915608 20.451189 4.705387 0.651599 2.741089 0.394866 1.097377 4.501435 0.623336 4.695759 17.533692 3.013342 -0.043866 15.415292 2.831317 -1.117492 -7.116118 5.300070 -8.251135 -5.757985 -11.631546 13.957447 -10.717284 0.576337 145.272497 -71.711191 -147.485805 -1.768227 -12.394224 9.748808 -8.604842 -7.109784 2.426290 0.570904 -11.168793 5.372622 -150.635811 -52.664765 150.823137 25.052285 -15.046162 -1.997502 1.084007 -48.645570 9.424252 -135.007227 84.095374 -123.785580 -3.776316 -12.880256 -2.427207 -0.343627 0.733745 -0.171577 -8.993043 -52.054449 15.217330 -153.144065 80.940909 -160.801039 0.780828 -16.828437 7.579555 -0.297748 -0.613304 -0.156276
14.858427 50.000838 53.121822 173.344996 -32.225886 -5.729318 5.856768 20.305158 4.682596 0.670033 2.755705 0.359240 1.067405 4.420382 0.647335 4.671782 17.454663 3.022005 0.019506 15.348912 2.792121 -0.987838 -7.243524 5.205781 -8.274141 -5.665424 -11.545375 13.810298 -10.704582 0.617685 143.817760 -71.771510 -146.123838 -1.723211 -12.302969 9.600576 -8.521365 -7.071688 2.347795 0.610161 -10.935629 5.210007 -149.981390 -52.818557 150.371066 24.861964 -14.749507 -2.065161 1.151259 -48.757494 9.370628 -134.940091 84.077825 -123.741840 -3.794779 -12.908672 -2.396832 -0.313010 0.768510 -0.176800 -8.967829 -52.144624 15.196175 -153.036722 80.957483 -160.722774 0.773184 -16.828920 7.581900 -0.297558 -0.605318 -0.148952
14.859090 50.003849 53.123964 173.334625 -32.158333 -5.681708 5.794966 20.195991 4.675345 0.661199 2.722603 0.360275 1.065961 4.399880 0.637538 4.650224 17.386325 3.037895 0.069073 15.285579 2.747191 -0.881506 -7.364697 5.105659 -8.287837 -5.594641 -11.465049 13.678982 -10.676768 0.675826 142.392015 -71.823115 -144.816744 -1.682936 -12.150933 9.384466 -8.437352 -7.060863 2.279075 0.610119 -10.694506 5.045769 -149.248625 -52.982157 149.878906 24.653760 -14.435966 -2.172671 1.198842 -48.828839 9.331098 -134.844074 84.061075 -123.663668 -3.822146 -12.933103 -2.376350 -0.399985 0.791076 -0.175678 -8.956615 -52.196180 15.188877 -152.974036 80.977922 -160.694874 0.745372 -16.821984 7.593277 -0.280518 -0.603498 -0.140429
14.864621 50.011674 53.121005 173.355486 -32.141214 -5.677713 5.754662 20.165224 4.677496 0.638973 2.668175 0.401604 1.063353 4.383622 0.628948 4.626563 17.331259 3.060836 0.106468 15.223429 2.697329 -0.795882 -7.483254 5.000649 -8.293040 -5.533020 -11.383930 13.554232 -10.645903 0.733731 141.021327 -71.870775 -143.577522 -1.652716 -11.930722 9.111049 -8.354618 -7.074294 2.216402 0.583944 -10.459139 4.885529 -148.429375 -53.151468 149.332845 24.432669 -14.115222 -2.318307 1.170586 -48.837808 9.388644 -134.386829 84.007054 -123.267899 -3.842820 -12.958281 -2.336471 -0.400648 0.806489 -0.168302 -8.992333 -52.192809 15.217213 -152.822329 80.984454 -160.577940 0.735559 -16.811897 7.603465 -0.265384 -0.611644 -0.133757
14.869168 50.017135 53.122432 173.365155 -32.101861 -5.666519 5.723732 20.109946 4.677284 0.628108 2.638889 0.434917 1.064725 4.391878 0.601066 4.601627 17.247986 3.124164 0.131337 15.163914 2.641348 -0.731201 -7.596486 4.888510 -8.285921 -5.466848 -11.299475 13.426986 -10.618262 0.776243 139.767355 -71.926157 -142.459579 -1.629530 -11.637138 8.785535 -8.275234 -7.099900 2.154719 0.548381 -10.238793 4.731193 -147.515285 -53.317763 148.716110 24.204251 -13.805741 -2.492189 1.169620 -48.872197 9.386328 -134.245191 83.994366 -123.140624 -3.843176 -12.968772 -2.327690 -0.414305 0.812567 -0.170028 -9.024106 -52.213477 15.253795 -152.629227 80.991233 -160.421356 0.715887 -16.805619 7.607984 -0.256679 -0.612048 -0.117819
14.873944 50.022770 53.124192 173.378893 -32.066418 -5.661582 5.687294 20.043604 4.710650 0.628327 2.652730 0.410329 1.043935 4.332811 0.659305 4.582676 17.224019 3.145145 0.140737 15.110912 2.577335 -0.692202 -7.697258 4.766834 -8.263712 -5.392923 -11.208889 13.286144 -10.588678 0.795794 138.677567 -71.997320 -141.498724 -1.608642 -11.282181 8.402547 -8.200866 -7.126490 2.090869 0.513484 -10.040209 4.581758 -146.497451 -53.475207 148.010237 23.971862 -13.535727 -2.678776 1.161775 -48.897965 9.384344 -134.121334 83.986482 -123.035324 -3.784416 -12.989737 -2.353203 -0.395565 0.823521 -0.151110 -9.044713 -52.235623 15.272762 -152.516624 80.999948 -160.328263 0.705205 -16.795189 7.614315 -0.256499 -0.617225 -0.113840
